<?xml version="1.0" encoding="UTF-8"?> <svg xmlns="http://www.w3.org/2000/svg" width="390" height="217" viewBox="0 0 390 217" fill="none"> <path d="M388.752 0.96479C388.772 0.828096 388.899 0.733055 389.035 0.752509C389.172 0.771963 389.267 0.898546 389.247 1.03524L388.752 0.96479ZM213.823 107.93L213.809 107.68L213.823 107.93ZM9.2277 213.103C9.17072 213.229 9.02258 213.285 8.89681 213.228C8.77105 213.171 8.71528 213.023 8.77225 212.897L9.2277 213.103ZM386.968 9.94171C386.925 10.073 386.784 10.1448 386.653 10.1022C386.521 10.0595 386.45 9.91841 386.492 9.7871L386.968 9.94171ZM379.243 26.5468C379.309 26.4253 379.46 26.3799 379.582 26.4455C379.703 26.511 379.749 26.6627 379.683 26.7842L379.243 26.5468ZM369.691 42.2336C369.607 42.3434 369.45 42.3646 369.34 42.2809C369.23 42.1973 369.209 42.0404 369.293 41.9306L369.691 42.2336ZM357.168 55.6513C357.267 55.5546 357.425 55.556 357.522 55.6545C357.618 55.753 357.617 55.9113 357.519 56.008L357.168 55.6513ZM343.62 67.9577C343.509 68.0408 343.353 68.0188 343.269 67.9086C343.186 67.7983 343.208 67.6416 343.319 67.5585L343.62 67.9577ZM328.062 77.6929C328.181 77.6232 328.334 77.6634 328.404 77.7826C328.474 77.9018 328.433 78.0549 328.314 78.1245L328.062 77.6929ZM311.993 86.5438C311.867 86.6008 311.719 86.5451 311.662 86.4193C311.605 86.2936 311.661 86.1454 311.787 86.0884L311.993 86.5438ZM294.785 92.8744C294.915 92.8289 295.057 92.8977 295.103 93.028C295.148 93.1584 295.08 93.3009 294.949 93.3464L294.785 92.8744ZM277.353 98.7064C277.219 98.7415 277.082 98.6618 277.047 98.5283C277.012 98.3948 277.092 98.258 277.225 98.2229L277.353 98.7064ZM259.376 102.264C259.512 102.238 259.643 102.327 259.669 102.462C259.695 102.598 259.606 102.729 259.47 102.755L259.376 102.264ZM241.292 105.672C241.155 105.69 241.029 105.593 241.011 105.456C240.993 105.319 241.09 105.194 241.227 105.176L241.292 105.672ZM223.054 107.066C223.191 107.055 223.312 107.158 223.323 107.296C223.333 107.434 223.231 107.554 223.093 107.565L223.054 107.066ZM203.788 108.852C203.651 108.863 203.53 108.76 203.519 108.622C203.508 108.485 203.611 108.364 203.749 108.353L203.788 108.852ZM183.885 110.448C184.022 110.43 184.148 110.526 184.166 110.663C184.184 110.8 184.088 110.926 183.951 110.944L183.885 110.448ZM164.164 114.139C164.028 114.165 163.897 114.076 163.871 113.941C163.845 113.805 163.934 113.674 164.07 113.648L164.164 114.139ZM144.56 118.018C144.694 117.983 144.83 118.064 144.865 118.197C144.899 118.331 144.819 118.467 144.685 118.502L144.56 118.018ZM125.515 124.14C125.384 124.184 125.242 124.113 125.198 123.982C125.155 123.851 125.226 123.709 125.357 123.666L125.515 124.14ZM106.58 130.685C106.708 130.632 106.854 130.692 106.907 130.819C106.961 130.947 106.9 131.093 106.773 131.146L106.58 130.685ZM88.6544 139.577C88.5317 139.641 88.381 139.593 88.3176 139.47C88.2543 139.347 88.3024 139.196 88.4251 139.133L88.6544 139.577ZM71.0618 149.062C71.1785 148.989 71.3329 149.024 71.4067 149.14C71.4804 149.257 71.4456 149.411 71.3289 149.485L71.0618 149.062ZM54.9242 160.947C54.8149 161.031 54.6579 161.011 54.5736 160.901C54.4892 160.792 54.5094 160.635 54.6187 160.551L54.9242 160.947ZM39.4062 173.547C39.5065 173.452 39.6647 173.457 39.7596 173.557C39.8545 173.657 39.8502 173.815 39.75 173.91L39.4062 173.547ZM25.9951 188.434C25.906 188.54 25.7483 188.553 25.6428 188.464C25.5373 188.375 25.5241 188.217 25.6132 188.112L25.9951 188.434ZM13.71 204.184C13.7841 204.068 13.9386 204.034 14.0551 204.108C14.1716 204.182 14.206 204.336 14.1319 204.453L13.71 204.184ZM389 1.00002C389.247 1.03524 389.247 1.03529 389.247 1.03535C389.247 1.03539 389.247 1.03546 389.247 1.03554C389.247 1.03569 389.247 1.03589 389.247 1.03614C389.247 1.03664 389.247 1.03735 389.247 1.03826C389.247 1.04008 389.246 1.04272 389.246 1.04616C389.245 1.05305 389.243 1.06317 389.241 1.0765C389.237 1.10315 389.231 1.14259 389.223 1.19455C389.206 1.29847 389.18 1.45243 389.143 1.65413C389.07 2.05752 388.954 2.65186 388.781 3.41868C388.437 4.95231 387.867 7.17593 386.968 9.94171L386.492 9.7871C387.386 7.0372 387.952 4.82863 388.294 3.30898C388.464 2.54916 388.579 1.9616 388.652 1.56474C388.688 1.36631 388.713 1.21557 388.729 1.1148C388.737 1.06442 388.743 1.02654 388.747 1.00144C388.749 0.988892 388.75 0.979539 388.751 0.973418C388.752 0.970358 388.752 0.968106 388.752 0.966666C388.752 0.965947 388.752 0.96543 388.752 0.965117C388.752 0.964961 388.752 0.964855 388.752 0.964801C388.752 0.964773 388.752 0.964771 388.752 0.964757C388.752 0.964767 388.752 0.96479 389 1.00002ZM379.683 26.7842C377.087 31.5962 373.812 36.8244 369.691 42.2336L369.293 41.9306C373.397 36.5434 376.658 31.3373 379.243 26.5468L379.683 26.7842ZM357.519 56.008C353.424 60.0293 348.812 64.0424 343.62 67.9577L343.319 67.5585C348.494 63.6564 353.089 59.6576 357.168 55.6513L357.519 56.008ZM328.314 78.1245C323.293 81.0599 317.863 83.8816 311.993 86.5438L311.787 86.0884C317.641 83.4332 323.055 80.6194 328.062 77.6929L328.314 78.1245ZM294.949 93.3464C289.411 95.2793 283.552 97.0745 277.353 98.7064L277.225 98.2229C283.412 96.5942 289.259 94.8028 294.785 92.8744L294.949 93.3464ZM259.47 102.755C253.671 103.867 247.615 104.845 241.292 105.672L241.227 105.176C247.541 104.35 253.587 103.374 259.376 102.264L259.47 102.755ZM223.093 107.565C220.062 107.803 216.977 108.008 213.836 108.179L213.809 107.68C216.946 107.509 220.027 107.304 223.054 107.066L223.093 107.565ZM213.836 108.179C210.435 108.365 207.086 108.59 203.788 108.852L203.749 108.353C207.05 108.091 210.403 107.866 213.809 107.68L213.836 108.179ZM183.951 110.944C177.111 111.85 170.517 112.921 164.164 114.139L164.07 113.648C170.433 112.429 177.035 111.356 183.885 110.448L183.951 110.944ZM144.685 118.502C137.996 120.226 131.61 122.114 125.515 124.14L125.357 123.666C131.463 121.636 137.861 119.744 144.56 118.018L144.685 118.502ZM106.773 131.146C100.358 133.825 94.3244 136.651 88.6544 139.577L88.4251 139.133C94.107 136.2 100.153 133.369 106.58 130.685L106.773 131.146ZM71.3289 149.485C65.3614 153.256 59.9041 157.103 54.9242 160.947L54.6187 160.551C59.6107 156.698 65.0808 152.842 71.0618 149.062L71.3289 149.485ZM39.75 173.91C34.3721 179.002 29.815 183.913 25.9951 188.434L25.6132 188.112C29.4444 183.576 34.0142 178.652 39.4062 173.547L39.75 173.91ZM14.1319 204.453C12.4176 207.149 11.1905 209.313 10.3925 210.803C9.99346 211.548 9.70173 212.124 9.51002 212.514C9.41417 212.708 9.34332 212.856 9.29656 212.955C9.27319 213.005 9.25584 213.042 9.2444 213.067C9.23868 213.079 9.23444 213.088 9.23166 213.094C9.23027 213.098 9.22924 213.1 9.22858 213.101C9.22826 213.102 9.22802 213.102 9.22787 213.103C9.22779 213.103 9.22774 213.103 9.22772 213.103C9.2277 213.103 9.2277 213.103 9.22769 213.103C9.22769 213.103 9.2277 213.103 8.99997 213C8.77225 212.897 8.77227 212.897 8.77229 212.897C8.77231 212.897 8.77234 212.897 8.77237 212.897C8.77243 212.896 8.77252 212.896 8.77262 212.896C8.77284 212.896 8.77315 212.895 8.77354 212.894C8.77434 212.892 8.7755 212.89 8.77702 212.886C8.78008 212.88 8.78459 212.87 8.79059 212.857C8.80259 212.831 8.8205 212.792 8.84445 212.742C8.89235 212.64 8.96438 212.49 9.06146 212.293C9.25561 211.899 9.54994 211.317 9.95172 210.567C10.7553 209.067 11.9886 206.891 13.71 204.184L14.1319 204.453ZM388.505 0.929565C388.544 0.656178 388.797 0.466095 389.07 0.505003C389.344 0.543912 389.534 0.797078 389.495 1.07047L388.505 0.929565ZM213.823 107.93L213.795 107.431L213.823 107.93ZM9.45542 213.206C9.34147 213.458 9.04519 213.569 8.79365 213.455C8.54212 213.341 8.43058 213.045 8.54453 212.794L9.45542 213.206ZM387.205 10.019C387.12 10.2816 386.838 10.4253 386.575 10.3399C386.313 10.2545 386.169 9.97241 386.255 9.7098L387.205 10.019ZM379.023 26.4281C379.154 26.185 379.458 26.0943 379.701 26.2255C379.944 26.3566 380.034 26.6599 379.903 26.9029L379.023 26.4281ZM369.89 42.3851C369.722 42.6047 369.408 42.6471 369.189 42.4798C368.969 42.3125 368.927 41.9987 369.094 41.7791L369.89 42.3851ZM356.993 55.473C357.19 55.2795 357.507 55.2823 357.7 55.4793C357.894 55.6763 357.891 55.9929 357.694 56.1864L356.993 55.473ZM343.77 68.1573C343.55 68.3236 343.236 68.2796 343.07 68.0591C342.904 67.8386 342.948 67.5251 343.168 67.3588L343.77 68.1573ZM327.936 77.477C328.174 77.3377 328.48 77.418 328.62 77.6564C328.759 77.8948 328.679 78.201 328.44 78.3404L327.936 77.477ZM312.096 86.7714C311.845 86.8855 311.549 86.7741 311.435 86.5226C311.321 86.2711 311.432 85.9748 311.683 85.8607L312.096 86.7714ZM294.702 92.6383C294.963 92.5473 295.248 92.6849 295.339 92.9456C295.43 93.2064 295.292 93.4915 295.032 93.5825L294.702 92.6383ZM277.416 98.9482C277.149 99.0185 276.876 98.859 276.805 98.5919C276.735 98.3249 276.895 98.0514 277.162 97.9811L277.416 98.9482ZM259.329 102.018C259.6 101.966 259.862 102.144 259.914 102.415C259.966 102.687 259.789 102.949 259.517 103.001L259.329 102.018ZM241.324 105.92C241.05 105.956 240.799 105.763 240.763 105.489C240.728 105.215 240.92 104.964 241.194 104.928L241.324 105.92ZM223.034 106.817C223.309 106.795 223.55 107.001 223.572 107.276C223.593 107.552 223.388 107.792 223.112 107.814L223.034 106.817ZM203.808 109.101C203.533 109.123 203.292 108.917 203.27 108.642C203.248 108.367 203.454 108.126 203.729 108.104L203.808 109.101ZM183.852 110.2C184.126 110.164 184.377 110.357 184.414 110.631C184.45 110.904 184.257 111.156 183.984 111.192L183.852 110.2ZM164.211 114.385C163.94 114.437 163.678 114.259 163.626 113.988C163.574 113.717 163.751 113.455 164.023 113.403L164.211 114.385ZM144.498 117.776C144.765 117.707 145.038 117.868 145.107 118.135C145.176 118.402 145.015 118.675 144.747 118.744L144.498 117.776ZM125.593 124.378C125.331 124.465 125.048 124.323 124.961 124.061C124.874 123.799 125.016 123.516 125.278 123.429L125.593 124.378ZM106.484 130.454C106.739 130.348 107.032 130.468 107.138 130.723C107.244 130.978 107.124 131.27 106.869 131.377L106.484 130.454ZM88.7691 139.8C88.5237 139.926 88.2221 139.83 88.0955 139.585C87.9688 139.339 88.0651 139.038 88.3104 138.911L88.7691 139.8ZM70.9282 148.851C71.1617 148.704 71.4705 148.773 71.618 149.007C71.7655 149.24 71.6959 149.549 71.4624 149.697L70.9282 148.851ZM55.077 161.145C54.8583 161.313 54.5444 161.273 54.3756 161.054C54.2069 160.836 54.2474 160.522 54.466 160.353L55.077 161.145ZM39.2343 173.366C39.4348 173.176 39.7513 173.184 39.9412 173.385C40.131 173.585 40.1224 173.902 39.9218 174.092L39.2343 173.366ZM26.1861 188.596C26.0079 188.807 25.6924 188.833 25.4815 188.655C25.2705 188.477 25.244 188.161 25.4222 187.95L26.1861 188.596ZM13.4991 204.05C13.6472 203.817 13.9563 203.748 14.1893 203.897C14.4223 204.045 14.4911 204.354 14.3429 204.587L13.4991 204.05ZM389 1.00002C389.495 1.07047 389.495 1.07055 389.495 1.07065C389.495 1.0707 389.495 1.07081 389.495 1.0709C389.495 1.0711 389.495 1.07135 389.495 1.07165C389.495 1.07225 389.495 1.07305 389.494 1.07406C389.494 1.07607 389.494 1.0789 389.493 1.08253C389.492 1.08981 389.491 1.10032 389.489 1.11403C389.484 1.14145 389.478 1.18168 389.47 1.23443C389.453 1.33992 389.426 1.49549 389.389 1.69882C389.316 2.10548 389.199 2.70321 389.025 3.47353C388.679 5.01414 388.107 7.2453 387.205 10.019L386.255 9.7098C387.146 6.96783 387.71 4.76679 388.05 3.25413C388.22 2.49781 388.334 1.91364 388.406 1.52005C388.441 1.32326 388.466 1.17411 388.482 1.07493C388.49 1.02534 388.496 0.988236 388.5 0.963912C388.502 0.95175 388.503 0.942783 388.504 0.937047C388.504 0.934178 388.505 0.932118 388.505 0.930869C388.505 0.930245 388.505 0.929824 388.505 0.929606C388.505 0.929498 388.505 0.92944 388.505 0.929433C388.505 0.929429 388.505 0.929463 388.505 0.929461C388.505 0.929507 388.505 0.929565 389 1.00002ZM379.903 26.9029C377.301 31.7256 374.019 36.9649 369.89 42.3851L369.094 41.7791C373.19 36.4029 376.444 31.2078 379.023 26.4281L379.903 26.9029ZM357.694 56.1864C353.592 60.2152 348.972 64.2354 343.77 68.1573L343.168 67.3588C348.335 63.4634 352.922 59.4717 356.993 55.473L357.694 56.1864ZM328.44 78.3404C323.411 81.2801 317.974 84.1057 312.096 86.7714L311.683 85.8607C317.53 83.209 322.937 80.3992 327.936 77.477L328.44 78.3404ZM295.032 93.5825C289.487 95.5175 283.622 97.3147 277.416 98.9482L277.162 97.9811C283.343 96.3541 289.183 94.5645 294.702 92.6383L295.032 93.5825ZM259.517 103.001C253.713 104.114 247.652 105.092 241.324 105.92L241.194 104.928C247.504 104.103 253.545 103.128 259.329 102.018L259.517 103.001ZM223.112 107.814C220.08 108.052 216.993 108.257 213.85 108.429L213.795 107.431C216.931 107.259 220.01 107.054 223.034 106.817L223.112 107.814ZM213.85 108.429C210.45 108.615 207.103 108.839 203.808 109.101L203.729 108.104C207.033 107.842 210.388 107.617 213.795 107.431L213.85 108.429ZM183.984 111.192C177.148 112.097 170.56 113.168 164.211 114.385L164.023 113.403C170.391 112.182 176.998 111.108 183.852 110.2L183.984 111.192ZM144.747 118.744C138.064 120.466 131.683 122.353 125.593 124.378L125.278 123.429C131.39 121.397 137.793 119.504 144.498 117.776L144.747 118.744ZM106.869 131.377C100.46 134.053 94.4331 136.876 88.7691 139.8L88.3104 138.911C93.9983 135.975 100.05 133.141 106.484 130.454L106.869 131.377ZM71.4624 149.697C65.5016 153.463 60.0508 157.306 55.077 161.145L54.466 160.353C59.464 156.496 64.9405 152.635 70.9282 148.851L71.4624 149.697ZM39.9218 174.092C34.551 179.177 30.0003 184.081 26.1861 188.596L25.4222 187.95C29.2591 183.408 33.8352 178.477 39.2343 173.366L39.9218 174.092ZM14.3429 204.587C12.6321 207.277 11.4081 209.437 10.6128 210.921C10.2152 211.664 9.92479 212.237 9.7343 212.624C9.63906 212.818 9.5688 212.964 9.52262 213.062C9.49953 213.111 9.48246 213.148 9.4713 213.172C9.46572 213.184 9.46162 213.193 9.45897 213.199C9.45765 213.201 9.4567 213.204 9.45611 213.205C9.45581 213.205 9.4556 213.206 9.45549 213.206C9.45543 213.206 9.4554 213.206 9.45539 213.206C9.45538 213.206 9.45539 213.206 9.45539 213.206C9.4554 213.206 9.45542 213.206 8.99997 213C8.54453 212.794 8.54456 212.794 8.5446 212.794C8.54462 212.793 8.54466 212.793 8.5447 212.793C8.54478 212.793 8.54488 212.793 8.545 212.793C8.54525 212.792 8.54559 212.791 8.54602 212.79C8.54689 212.788 8.54811 212.786 8.54971 212.782C8.5529 212.775 8.55755 212.765 8.56369 212.752C8.57596 212.725 8.59416 212.686 8.61839 212.635C8.66686 212.532 8.73949 212.381 8.83717 212.182C9.03255 211.786 9.32818 211.202 9.73134 210.449C10.5377 208.944 11.7742 206.763 13.4991 204.05L14.3429 204.587Z" fill="#464646"></path> <path d="M6.15791 199.997L8.89294 213.721L23.1128 206.287" stroke="#464646" stroke-linecap="round" stroke-linejoin="round"></path> </svg> 