<?xml version="1.0" encoding="UTF-8"?> <svg xmlns="http://www.w3.org/2000/svg" width="201" height="162" viewBox="0 0 201 162" fill="none"> <path d="M0.755023 1.04979C0.727527 0.914479 0.814924 0.782503 0.95023 0.755007C1.08554 0.727512 1.21751 0.814909 1.24501 0.950215L0.755023 1.04979ZM96.7694 75.6805L96.834 75.439L96.7694 75.6805ZM195.559 159.36C195.588 159.495 195.503 159.628 195.368 159.657C195.233 159.687 195.1 159.601 195.07 159.467L195.559 159.36ZM4.85015 10.7631C4.909 10.888 4.85546 11.037 4.73057 11.0958C4.60567 11.1547 4.4567 11.1011 4.39785 10.9762L4.85015 10.7631ZM15.7664 28.777C15.6792 28.67 15.6952 28.5125 15.8023 28.4253C15.9093 28.3381 16.0668 28.3541 16.154 28.4612L15.7664 28.777ZM30.9826 43.3728C31.0886 43.4613 31.1027 43.6189 31.0142 43.7249C30.9257 43.8309 30.7681 43.8451 30.6621 43.7566L30.9826 43.3728ZM47.9208 55.9415C47.8023 55.8707 47.7637 55.7171 47.8346 55.5987C47.9054 55.4802 48.0589 55.4416 48.1774 55.5124L47.9208 55.9415ZM66.9389 65.1109C67.0655 65.1661 67.1234 65.3134 67.0682 65.44C67.013 65.5665 66.8657 65.6244 66.7391 65.5692L66.9389 65.1109ZM86.5234 72.9524C86.3918 72.9107 86.3189 72.7702 86.3606 72.6386C86.4023 72.507 86.5428 72.4341 86.6744 72.4757L86.5234 72.9524ZM107.675 78.6648C107.807 78.708 107.878 78.8492 107.835 78.9804C107.792 79.1116 107.651 79.1829 107.519 79.1398L107.675 78.6648ZM128.391 87.4586C128.266 87.3992 128.213 87.25 128.272 87.1254C128.332 87.0007 128.481 86.9478 128.606 87.0072L128.391 87.4586ZM148.173 98.1223C148.287 98.1994 148.318 98.3548 148.241 98.4693C148.163 98.5839 148.008 98.6142 147.894 98.5372L148.173 98.1223ZM165.425 112.566C165.325 112.471 165.321 112.313 165.416 112.213C165.512 112.113 165.67 112.109 165.77 112.204L165.425 112.566ZM180.601 129.167C180.682 129.279 180.656 129.436 180.544 129.516C180.432 129.597 180.276 129.571 180.195 129.459L180.601 129.167ZM191.367 148.928C191.312 148.801 191.37 148.654 191.497 148.599C191.623 148.544 191.77 148.602 191.826 148.728L191.367 148.928ZM1.00002 1C1.24501 0.950215 1.245 0.950181 1.245 0.950162C1.245 0.950175 1.245 0.95017 1.245 0.950196C1.24501 0.950248 1.24504 0.950358 1.24507 0.950527C1.24514 0.950864 1.24526 0.951434 1.24542 0.952237C1.24576 0.953841 1.24628 0.956375 1.24701 0.95983C1.24846 0.966741 1.2507 0.977342 1.25379 0.991583C1.25996 1.02006 1.26947 1.06311 1.28265 1.12031C1.309 1.23472 1.35 1.40579 1.40814 1.63033C1.52444 2.07943 1.70936 2.74244 1.983 3.59401C2.53027 5.29716 3.43239 7.75446 4.85015 10.7631L4.39785 10.9762C2.97021 7.94663 2.06034 5.46909 1.50697 3.74697C1.23028 2.8859 1.04271 2.21367 0.924112 1.75568C0.86481 1.52668 0.822748 1.35124 0.795406 1.23254C0.781735 1.17318 0.771745 1.12801 0.765119 1.09742C0.761806 1.08213 0.759335 1.07048 0.757665 1.06252C0.75683 1.05854 0.756196 1.05549 0.755757 1.05336C0.755538 1.0523 0.755367 1.05147 0.755245 1.05087C0.755184 1.05058 0.755135 1.05034 0.755098 1.05015C0.755079 1.05006 0.75506 1.04997 0.755051 1.04993C0.755035 1.04985 0.755023 1.04979 1.00002 1ZM16.154 28.4612C20.0457 33.2375 24.9123 38.3041 30.9826 43.3728L30.6621 43.7566C24.5667 38.667 19.6777 33.5775 15.7664 28.777L16.154 28.4612ZM48.1774 55.5124C53.7579 58.8502 59.9874 62.0804 66.9389 65.1109L66.7391 65.5692C59.7685 62.5305 53.52 59.2906 47.9208 55.9415L48.1774 55.5124ZM86.6744 72.4757C89.9368 73.509 93.3219 74.4987 96.834 75.439L96.7047 75.922C93.1854 74.9798 89.7931 73.988 86.5234 72.9524L86.6744 72.4757ZM96.834 75.439C100.585 76.4434 104.197 77.5214 107.675 78.6648L107.519 79.1398C104.05 77.9994 100.447 76.924 96.7047 75.922L96.834 75.439ZM128.606 87.0072C135.866 90.4645 142.363 94.2128 148.173 98.1223L147.894 98.5372C142.104 94.6414 135.629 90.9053 128.391 87.4586L128.606 87.0072ZM165.77 112.204C171.816 117.958 176.689 123.731 180.601 129.167L180.195 129.459C176.3 124.047 171.447 118.298 165.425 112.566L165.77 112.204ZM191.826 148.728C193.24 151.977 194.172 154.631 194.752 156.475C195.041 157.397 195.243 158.117 195.372 158.607C195.436 158.851 195.483 159.039 195.513 159.166C195.529 159.229 195.54 159.277 195.547 159.31C195.551 159.326 195.554 159.338 195.556 159.347C195.557 159.351 195.557 159.354 195.558 159.356C195.558 159.357 195.558 159.358 195.558 159.359C195.558 159.359 195.558 159.359 195.558 159.359C195.559 159.36 195.559 159.36 195.559 159.36C195.559 159.36 195.559 159.36 195.314 159.413C195.07 159.467 195.07 159.467 195.07 159.467C195.07 159.467 195.07 159.467 195.07 159.466C195.07 159.466 195.07 159.466 195.07 159.466C195.07 159.466 195.07 159.465 195.07 159.464C195.069 159.462 195.069 159.46 195.068 159.456C195.066 159.448 195.063 159.437 195.06 159.421C195.053 159.391 195.042 159.344 195.027 159.283C194.998 159.159 194.952 158.975 194.888 158.734C194.761 158.252 194.562 157.54 194.275 156.625C193.7 154.797 192.774 152.159 191.367 148.928L191.826 148.728ZM0.51003 1.09957C0.455039 0.828959 0.629834 0.565006 0.900445 0.510014C1.17106 0.455023 1.43501 0.629818 1.49 0.90043L0.51003 1.09957ZM96.7694 75.6805L96.8987 75.1976L96.7694 75.6805ZM195.803 159.306C195.862 159.576 195.691 159.843 195.421 159.902C195.151 159.961 194.885 159.79 194.826 159.52L195.803 159.306ZM5.07629 10.6565C5.19401 10.9063 5.08693 11.2043 4.83713 11.322C4.58734 11.4397 4.28941 11.3326 4.1717 11.0828L5.07629 10.6565ZM15.5726 28.9349C15.3981 28.7208 15.4303 28.4059 15.6444 28.2315C15.8585 28.057 16.1734 28.0892 16.3478 28.3033L15.5726 28.9349ZM31.1428 43.1809C31.3548 43.3579 31.3831 43.6732 31.2061 43.8851C31.0292 44.0971 30.7138 44.1255 30.5019 43.9485L31.1428 43.1809ZM47.7925 56.1561C47.5555 56.0143 47.4783 55.7073 47.62 55.4703C47.7618 55.2333 48.0688 55.1561 48.3058 55.2979L47.7925 56.1561ZM67.0388 64.8817C67.292 64.9921 67.4077 65.2867 67.2974 65.5399C67.187 65.793 66.8923 65.9087 66.6392 65.7984L67.0388 64.8817ZM86.4479 73.1907C86.1847 73.1074 86.0389 72.8264 86.1223 72.5631C86.2056 72.2999 86.4866 72.154 86.7499 72.2374L86.4479 73.1907ZM107.754 78.4273C108.016 78.5136 108.159 78.7961 108.072 79.0585C107.986 79.3208 107.704 79.4636 107.441 79.3773L107.754 78.4273ZM128.283 87.6843C128.034 87.5656 127.928 87.2672 128.047 87.0179C128.166 86.7686 128.464 86.6627 128.713 86.7814L128.283 87.6843ZM148.312 97.9149C148.541 98.0691 148.602 98.3798 148.448 98.6089C148.294 98.838 147.983 98.8987 147.754 98.7446L148.312 97.9149ZM165.253 112.748C165.053 112.557 165.045 112.241 165.235 112.041C165.426 111.841 165.742 111.833 165.942 112.023L165.253 112.748ZM180.804 129.021C180.965 129.245 180.914 129.558 180.69 129.719C180.466 129.88 180.154 129.829 179.992 129.605L180.804 129.021ZM191.138 149.028C191.028 148.774 191.144 148.48 191.397 148.37C191.65 148.259 191.945 148.375 192.055 148.628L191.138 149.028ZM1.00002 1C1.49 0.90043 1.48998 0.900347 1.48997 0.90028C1.48997 0.900276 1.48996 0.900223 1.48996 0.900217C1.48995 0.900204 1.48996 0.90025 1.48999 0.900353C1.49003 0.900561 1.49012 0.901001 1.49026 0.901673C1.49053 0.903018 1.49101 0.905291 1.49168 0.908485C1.49302 0.914874 1.49515 0.92495 1.49812 0.938663C1.50406 0.96609 1.51334 1.00807 1.52627 1.0642C1.55213 1.17646 1.59259 1.34534 1.65016 1.56766C1.76531 2.01231 1.9489 2.67071 2.22101 3.51753C2.76523 5.21119 3.66348 7.65837 5.07629 10.6565L4.1717 11.0828C2.73912 8.04271 1.82537 5.55506 1.26895 3.82345C0.990742 2.95764 0.80185 2.28079 0.682095 1.81835C0.622217 1.58713 0.579621 1.4095 0.551785 1.28865C0.537867 1.22822 0.527638 1.18199 0.520784 1.15034C0.517357 1.13452 0.514774 1.12234 0.512994 1.11387C0.512105 1.10963 0.511416 1.10631 0.510924 1.10393C0.510678 1.10273 0.51048 1.10177 0.510332 1.10105C0.510257 1.10068 0.510195 1.10038 0.510145 1.10013C0.510119 1.10001 0.510091 1.09987 0.510078 1.09981C0.510052 1.09968 0.51003 1.09957 1.00002 1ZM16.3478 28.3033C20.2296 33.0675 25.085 38.1227 31.1428 43.1809L30.5019 43.9485C24.394 38.8484 19.4938 33.7475 15.5726 28.9349L16.3478 28.3033ZM48.3058 55.2979C53.8769 58.6301 60.0968 61.8554 67.0388 64.8817L66.6392 65.7984C59.6591 62.7555 53.4011 59.5107 47.7925 56.1561L48.3058 55.2979ZM86.7499 72.2374C90.0087 73.2696 93.3901 74.2582 96.8987 75.1976L96.6401 76.1635C93.1172 75.2203 89.7213 74.2275 86.4479 73.1907L86.7499 72.2374ZM96.8987 75.1976C100.654 76.2031 104.271 77.2824 107.754 78.4273L107.441 79.3773C103.977 78.2383 100.378 77.1643 96.6401 76.1635L96.8987 75.1976ZM128.713 86.7814C135.984 90.244 142.492 93.9985 148.312 97.9149L147.754 98.7446C141.975 94.8557 135.51 91.1257 128.283 87.6843L128.713 86.7814ZM165.942 112.023C172 117.788 176.883 123.574 180.804 129.021L179.992 129.605C176.106 124.205 171.263 118.467 165.253 112.748L165.942 112.023ZM192.055 148.628C193.473 151.886 194.408 154.549 194.99 156.4C195.281 157.326 195.483 158.05 195.614 158.543C195.679 158.79 195.726 158.979 195.756 159.107C195.772 159.171 195.783 159.22 195.791 159.254C195.795 159.27 195.798 159.283 195.8 159.292C195.801 159.296 195.801 159.3 195.802 159.302C195.802 159.303 195.802 159.304 195.802 159.305C195.803 159.305 195.803 159.306 195.803 159.306C195.803 159.306 195.803 159.306 195.803 159.306C195.803 159.306 195.803 159.306 195.314 159.413C194.826 159.52 194.826 159.52 194.826 159.52C194.826 159.52 194.826 159.52 194.826 159.52C194.826 159.52 194.826 159.52 194.826 159.52C194.826 159.519 194.826 159.519 194.825 159.518C194.825 159.517 194.825 159.514 194.824 159.51C194.822 159.503 194.82 159.492 194.816 159.477C194.809 159.447 194.799 159.402 194.784 159.341C194.755 159.22 194.71 159.037 194.647 158.798C194.52 158.319 194.322 157.611 194.036 156.7C193.464 154.879 192.541 152.25 191.138 149.028L192.055 148.628Z" fill="#464646"></path> <path d="M199.856 151.742L195.423 160.508L188.703 154.726" stroke="#464646" stroke-linecap="round" stroke-linejoin="round"></path> </svg> 