<?xml version="1.0" encoding="UTF-8"?> <svg xmlns="http://www.w3.org/2000/svg" width="390" height="217" viewBox="0 0 390 217" fill="none"> <path d="M1.24747 0.964731C1.228 0.828039 1.10141 0.733013 0.964722 0.752483C0.828033 0.771953 0.733002 0.898547 0.752472 1.03524L1.24747 0.964731ZM380.333 212.68C380.39 212.805 380.538 212.861 380.664 212.804C380.789 212.747 380.845 212.599 380.788 212.473L380.333 212.68ZM3.60678 11.6378C3.65216 11.7682 3.79468 11.8372 3.92508 11.7918C4.05548 11.7464 4.12439 11.6039 4.07901 11.4735L3.60678 11.6378ZM13.4803 31.2759C13.4088 31.1578 13.2552 31.1199 13.137 31.1913C13.0188 31.2627 12.981 31.4164 13.0524 31.5346L13.4803 31.2759ZM26.1125 49.2352C26.204 49.3386 26.362 49.3483 26.4654 49.2567C26.5688 49.1652 26.5784 49.0072 26.4869 48.9038L26.1125 49.2352ZM42.3374 64.0649C42.2303 63.9777 42.0728 63.9939 41.9857 64.1009C41.8985 64.208 41.9147 64.3655 42.0218 64.4526L42.3374 64.0649ZM60.049 77.0445C60.1674 77.1155 60.321 77.077 60.3919 76.9585C60.4629 76.84 60.4243 76.6865 60.3059 76.6156L60.049 77.0445ZM79.8411 86.6858C79.7147 86.6301 79.5672 86.6873 79.5114 86.8136C79.4557 86.9399 79.5129 87.0875 79.6392 87.1433L79.8411 86.6858ZM100.239 94.9353C100.371 94.9775 100.512 94.9051 100.554 94.7736C100.596 94.6422 100.524 94.5014 100.392 94.4592L100.239 94.9353ZM121.579 100.208C121.444 100.177 121.31 100.262 121.28 100.397C121.249 100.531 121.334 100.665 121.469 100.696L121.579 100.208ZM143.044 104.698C143.18 104.718 143.307 104.624 143.328 104.487C143.348 104.351 143.253 104.223 143.117 104.203L143.044 104.698ZM164.95 106.708C164.812 106.696 164.691 106.799 164.68 106.936C164.669 107.074 164.771 107.195 164.908 107.206L164.95 106.708ZM185.995 108.637C186.133 108.647 186.253 108.545 186.264 108.407C186.275 108.269 186.172 108.149 186.035 108.138L185.995 108.637ZM205.871 110.228C205.734 110.21 205.609 110.306 205.591 110.443C205.573 110.58 205.669 110.706 205.806 110.724L205.871 110.228ZM225.566 113.912C225.702 113.938 225.833 113.849 225.859 113.713C225.885 113.578 225.796 113.447 225.66 113.421L225.566 113.912ZM245.144 117.78C245.01 117.746 244.874 117.826 244.839 117.96C244.805 118.094 244.885 118.23 245.019 118.264L245.144 117.78ZM264.165 123.89C264.296 123.933 264.438 123.862 264.481 123.731C264.525 123.6 264.454 123.459 264.323 123.415L264.165 123.89ZM283.076 130.418C282.949 130.365 282.802 130.425 282.749 130.553C282.696 130.68 282.756 130.826 282.884 130.88L283.076 130.418ZM300.981 139.292C301.103 139.355 301.254 139.307 301.317 139.184C301.381 139.062 301.333 138.911 301.21 138.848L300.981 139.292ZM318.554 148.756C318.437 148.682 318.283 148.717 318.209 148.834C318.135 148.951 318.17 149.105 318.287 149.179L318.554 148.756ZM334.674 160.616C334.784 160.701 334.941 160.68 335.025 160.571C335.109 160.462 335.089 160.305 334.98 160.22L334.674 160.616ZM350.178 173.191C350.078 173.096 349.919 173.101 349.824 173.201C349.73 173.301 349.734 173.459 349.834 173.554L350.178 173.191ZM363.578 188.052C363.667 188.158 363.824 188.171 363.93 188.082C364.035 187.992 364.049 187.835 363.959 187.729L363.578 188.052ZM375.853 203.774C375.779 203.658 375.625 203.623 375.508 203.698C375.392 203.772 375.357 203.926 375.432 204.043L375.853 203.774ZM0.999969 0.999985C0.752472 1.03524 0.752472 1.03529 0.752472 1.03536C0.752502 1.03541 0.752502 1.03549 0.752502 1.03558C0.752533 1.03576 0.752563 1.03599 0.752625 1.03629C0.752716 1.03689 0.752838 1.03773 0.752991 1.03882C0.753296 1.041 0.753754 1.04416 0.754364 1.04829C0.755585 1.05656 0.757416 1.06873 0.759857 1.08475C0.764771 1.1168 0.772186 1.16425 0.78241 1.22674C0.802856 1.35171 0.834534 1.5368 0.879547 1.77894C0.969635 2.26322 1.11322 2.97573 1.32779 3.89195C1.75693 5.72436 2.47003 8.37174 3.60678 11.6378L4.07901 11.4735C2.94849 8.22525 2.24011 5.59478 1.81461 3.77794C1.60187 2.86953 1.45984 2.16456 1.37112 1.68752C1.32675 1.449 1.29575 1.26747 1.27585 1.14598C1.2659 1.08524 1.25876 1.03951 1.25412 1.00917C1.2518 0.994002 1.25009 0.982683 1.24902 0.97526C1.24847 0.971549 1.24805 0.968812 1.2478 0.967055C1.24768 0.966177 1.24759 0.965543 1.24753 0.965156C1.2475 0.964962 1.2475 0.964829 1.24747 0.964759C1.24747 0.964723 1.24747 0.964716 1.24747 0.964698C1.24747 0.964707 1.24747 0.964731 0.999969 0.999985ZM13.0524 31.5346C16.432 37.1251 20.7098 43.1317 26.1125 49.2352L26.4869 48.9038C21.1053 42.8242 16.8453 36.8422 13.4803 31.2759L13.0524 31.5346ZM42.0218 64.4526C47.3322 68.7749 53.3136 73.011 60.049 77.0445L60.3059 76.6156C53.591 72.5943 47.6292 68.372 42.3374 64.0649L42.0218 64.4526ZM79.6392 87.1433C85.9883 89.9455 92.8418 92.5613 100.239 94.9353L100.392 94.4592C93.0108 92.0904 86.1737 89.4808 79.8411 86.6858L79.6392 87.1433ZM121.469 100.696C128.274 102.231 135.458 103.575 143.044 104.698L143.117 104.203C135.543 103.082 128.371 101.74 121.579 100.208L121.469 100.696ZM164.908 107.206C168.513 107.506 172.197 107.76 175.961 107.966L175.988 107.467C172.229 107.261 168.55 107.008 164.95 106.708L164.908 107.206ZM175.961 107.966C179.358 108.151 182.702 108.375 185.995 108.637L186.035 108.138C182.738 107.877 179.389 107.652 175.988 107.467L175.961 107.966ZM205.806 110.724C212.637 111.628 219.221 112.697 225.566 113.912L225.66 113.421C219.306 112.204 212.712 111.134 205.871 110.228L205.806 110.724ZM245.019 118.264C251.699 119.984 258.077 121.869 264.165 123.89L264.323 123.415C258.224 121.39 251.835 119.503 245.144 117.78L245.019 118.264ZM282.884 130.88C289.291 133.553 295.317 136.372 300.981 139.292L301.21 138.848C295.535 135.921 289.496 133.097 283.076 130.418L282.884 130.88ZM318.287 149.179C324.248 152.941 329.7 156.781 334.674 160.616L334.98 160.22C329.993 156.376 324.529 152.527 318.554 148.756L318.287 149.179ZM349.834 173.554C355.208 178.637 359.761 183.538 363.578 188.052L363.959 187.729C360.131 183.202 355.565 178.287 350.178 173.191L349.834 173.554ZM375.432 204.043C377.145 206.734 378.371 208.896 379.169 210.383C379.567 211.127 379.859 211.702 380.05 212.091C380.146 212.286 380.217 212.433 380.264 212.532C380.287 212.581 380.304 212.619 380.316 212.643C380.322 212.656 380.326 212.665 380.329 212.671C380.33 212.674 380.331 212.676 380.332 212.678C380.332 212.678 380.332 212.679 380.332 212.679C380.333 212.679 380.333 212.68 380.333 212.68C380.333 212.68 380.333 212.68 380.333 212.68C380.333 212.68 380.333 212.68 380.56 212.576C380.788 212.473 380.788 212.473 380.788 212.473C380.788 212.473 380.788 212.473 380.788 212.473C380.788 212.473 380.788 212.473 380.788 212.472C380.787 212.472 380.787 212.471 380.787 212.47C380.786 212.469 380.785 212.466 380.783 212.463C380.78 212.456 380.776 212.446 380.77 212.433C380.758 212.407 380.74 212.369 380.716 212.318C380.668 212.217 380.596 212.067 380.499 211.87C380.305 211.476 380.011 210.896 379.609 210.147C378.806 208.649 377.574 206.477 375.853 203.774L375.432 204.043ZM1.49496 0.929477C1.45602 0.656094 1.20285 0.466041 0.929474 0.504981C0.656067 0.543922 0.466034 0.79711 0.504974 1.07049L1.49496 0.929477ZM380.105 212.783C380.219 213.034 380.515 213.146 380.767 213.032C381.018 212.918 381.13 212.621 381.016 212.37L380.105 212.783ZM3.37067 11.72C3.46146 11.9808 3.74646 12.1187 4.00723 12.0279C4.26804 11.9371 4.40588 11.6521 4.31512 11.3913L3.37067 11.72ZM13.6942 31.1466C13.5514 30.9103 13.244 30.8345 13.0077 30.9774C12.7713 31.1202 12.6956 31.4276 12.8384 31.6639L13.6942 31.1466ZM25.9253 49.4009C26.1083 49.6077 26.4243 49.627 26.6311 49.4439C26.8378 49.2609 26.8571 48.9449 26.6741 48.7381L25.9253 49.4009ZM42.4952 63.871C42.281 63.6966 41.9661 63.729 41.7918 63.9431C41.6175 64.1573 41.6498 64.4722 41.8639 64.6465L42.4952 63.871ZM59.9206 77.259C60.1575 77.4009 60.4645 77.3238 60.6064 77.0869C60.7483 76.85 60.6712 76.543 60.4343 76.4011L59.9206 77.259ZM79.942 86.4571C79.6894 86.3456 79.3942 86.46 79.2827 86.7126C79.1712 86.9653 79.2856 87.2605 79.5382 87.372L79.942 86.4571ZM100.163 95.1733C100.426 95.2577 100.707 95.113 100.792 94.85C100.876 94.5871 100.731 94.3055 100.469 94.2212L100.163 95.1733ZM121.634 99.964C121.364 99.9032 121.097 100.072 121.036 100.342C120.975 100.611 121.144 100.879 121.414 100.939L121.634 99.964ZM143.007 104.945C143.28 104.986 143.534 104.797 143.575 104.524C143.615 104.251 143.427 103.996 143.154 103.956L143.007 104.945ZM164.971 106.459C164.695 106.436 164.454 106.64 164.431 106.916C164.408 107.191 164.612 107.432 164.888 107.455L164.971 106.459ZM185.975 108.886C186.251 108.908 186.492 108.702 186.513 108.427C186.535 108.152 186.33 107.911 186.055 107.889L185.975 108.886ZM205.904 109.98C205.63 109.944 205.379 110.137 205.343 110.411C205.307 110.684 205.499 110.936 205.773 110.972L205.904 109.98ZM225.519 114.157C225.791 114.209 226.053 114.032 226.104 113.76C226.156 113.489 225.979 113.227 225.707 113.175L225.519 114.157ZM245.206 117.538C244.939 117.469 244.666 117.63 244.597 117.898C244.528 118.165 244.689 118.438 244.957 118.506L245.206 117.538ZM264.087 124.127C264.349 124.214 264.632 124.072 264.719 123.81C264.806 123.548 264.664 123.265 264.402 123.178L264.087 124.127ZM283.172 130.187C282.917 130.081 282.625 130.202 282.518 130.456C282.412 130.711 282.532 131.004 282.787 131.11L283.172 130.187ZM300.866 139.514C301.112 139.641 301.413 139.545 301.54 139.299C301.666 139.054 301.57 138.752 301.324 138.626L300.866 139.514ZM318.687 148.544C318.454 148.397 318.145 148.467 317.998 148.7C317.85 148.934 317.92 149.243 318.154 149.39L318.687 148.544ZM334.522 160.814C334.741 160.983 335.054 160.942 335.223 160.724C335.392 160.505 335.351 160.191 335.132 160.022L334.522 160.814ZM350.35 173.009C350.149 172.82 349.833 172.829 349.643 173.029C349.453 173.23 349.462 173.546 349.662 173.736L350.35 173.009ZM363.387 188.213C363.565 188.424 363.88 188.451 364.091 188.272C364.302 188.094 364.329 187.779 364.15 187.568L363.387 188.213ZM376.064 203.64C375.916 203.407 375.607 203.338 375.374 203.487C375.141 203.635 375.072 203.944 375.221 204.177L376.064 203.64ZM0.999969 0.999985C0.504974 1.07049 0.504974 1.07059 0.505005 1.0707C0.505005 1.07075 0.505035 1.07088 0.505035 1.07099C0.505066 1.07122 0.505096 1.07151 0.505157 1.07186C0.505249 1.07256 0.505402 1.07351 0.505585 1.07471C0.50592 1.07709 0.506409 1.08046 0.50705 1.08481C0.508331 1.0935 0.510223 1.1061 0.512726 1.12254C0.517761 1.15544 0.52533 1.20376 0.535706 1.26712C0.556427 1.39383 0.588409 1.5807 0.633759 1.82465C0.724518 2.31255 0.868896 3.02883 1.08438 3.94896C1.51535 5.78916 2.23083 8.44499 3.37067 11.72L4.31512 11.3913C3.18768 8.152 2.48169 5.52998 2.05804 3.72093C1.84619 2.81643 1.70496 2.11523 1.61691 1.64181C1.57288 1.4051 1.54218 1.22534 1.52255 1.1056C1.51276 1.04573 1.50574 1.00086 1.50125 0.971378C1.49899 0.956637 1.49738 0.945743 1.49634 0.938744C1.49582 0.935244 1.49545 0.932718 1.49521 0.931171C1.49512 0.930398 1.49503 0.92987 1.495 0.929587C1.49496 0.929446 1.49496 0.929366 1.49496 0.929347C1.49496 0.929338 1.49496 0.92937 1.49496 0.929366C1.49496 0.929414 1.49496 0.929477 0.999969 0.999985ZM12.8384 31.6639C16.2254 37.2666 20.512 43.2854 25.9253 49.4009L26.6741 48.7381C21.3031 42.6705 17.0519 36.7008 13.6942 31.1466L12.8384 31.6639ZM41.8639 64.6465C47.1836 68.9764 53.1749 73.2194 59.9206 77.259L60.4343 76.4011C53.7297 72.386 47.7777 68.1705 42.4952 63.871L41.8639 64.6465ZM79.5382 87.372C85.8956 90.1778 92.7573 92.7967 100.163 95.1733L100.469 94.2212C93.0953 91.855 86.2664 89.2484 79.942 86.4571L79.5382 87.372ZM121.414 100.939C128.225 102.476 135.416 103.821 143.007 104.945L143.154 103.956C135.586 102.835 128.42 101.495 121.634 99.964L121.414 100.939ZM164.888 107.455C168.495 107.756 172.181 108.01 175.947 108.215L176.002 107.217C172.245 107.012 168.569 106.758 164.971 106.459L164.888 107.455ZM175.947 108.215C179.342 108.401 182.685 108.625 185.975 108.886L186.055 107.889C182.756 107.627 179.405 107.403 176.002 107.217L175.947 108.215ZM205.773 110.972C212.599 111.875 219.179 112.943 225.519 114.157L225.707 113.175C219.348 111.957 212.749 110.886 205.904 109.98L205.773 110.972ZM244.957 118.506C251.631 120.225 258.004 122.108 264.087 124.127L264.402 123.178C258.297 121.151 251.903 119.262 245.206 117.538L244.957 118.506ZM282.787 131.11C289.189 133.781 295.209 136.597 300.866 139.514L301.324 138.626C295.643 135.696 289.599 132.869 283.172 130.187L282.787 131.11ZM318.154 149.39C324.108 153.148 329.553 156.984 334.522 160.814L335.132 160.022C330.14 156.173 324.669 152.32 318.687 148.544L318.154 149.39ZM349.662 173.736C355.029 178.811 359.576 183.706 363.387 188.213L364.15 187.568C360.317 183.034 355.744 178.112 350.35 173.009L349.662 173.736ZM375.221 204.177C376.93 206.863 378.154 209.019 378.948 210.502C379.346 211.243 379.636 211.815 379.826 212.202C379.921 212.395 379.992 212.541 380.038 212.639C380.061 212.688 380.078 212.724 380.089 212.748C380.095 212.76 380.099 212.769 380.101 212.775C380.103 212.778 380.104 212.78 380.104 212.781C380.105 212.782 380.105 212.783 380.105 212.783C380.105 212.783 380.105 212.783 380.105 212.783C380.105 212.783 380.105 212.783 380.105 212.783C380.105 212.783 380.105 212.783 380.56 212.576C381.016 212.37 381.016 212.37 381.016 212.37C381.016 212.37 381.016 212.37 381.016 212.37C381.015 212.369 381.015 212.369 381.015 212.369C381.015 212.368 381.015 212.368 381.014 212.367C381.013 212.365 381.012 212.362 381.01 212.359C381.007 212.352 381.003 212.342 380.997 212.328C380.984 212.302 380.966 212.263 380.942 212.212C380.893 212.109 380.821 211.958 380.723 211.76C380.528 211.363 380.233 210.781 379.83 210.029C379.024 208.526 377.788 206.348 376.064 203.64L375.221 204.177Z" fill="#464646"></path> <path d="M383.842 199.997L381.107 213.721L366.887 206.287" stroke="#464646" stroke-linecap="round" stroke-linejoin="round"></path> </svg> 