<?xml version="1.0" encoding="UTF-8"?> <svg xmlns="http://www.w3.org/2000/svg" width="220" height="36" viewBox="0 0 220 36" fill="none"> <path d="M7.52673 0C9.02924 0 10.3404 0.303604 11.4602 0.910814C12.5942 1.51802 13.473 2.40059 14.0967 3.55853C14.7204 4.70234 15.0322 6.07209 15.0322 7.66778C15.0322 9.22111 14.7133 10.5979 14.0754 11.7982C13.4376 12.9985 12.5446 13.9305 11.3964 14.5942C10.2624 15.2579 8.96546 15.5897 7.50547 15.5897C6.00296 15.5897 4.68472 15.2861 3.55075 14.6789C2.43095 14.0717 1.55921 13.1962 0.935526 12.0524C0.311842 10.8945 0 9.51765 0 7.92196C0 6.36864 0.318929 4.99182 0.956788 3.79153C1.59465 2.59123 2.48056 1.65923 3.61453 0.995541C4.76268 0.331846 6.06674 0 7.52673 0ZM7.44168 0.38127C6.66208 0.38127 5.97461 0.698996 5.37927 1.33445C4.78394 1.95578 4.32326 2.83129 3.99725 3.96098C3.68541 5.09067 3.52948 6.38276 3.52948 7.83724C3.52948 9.30583 3.70667 10.5979 4.06103 11.7135C4.42957 12.8291 4.9186 13.6904 5.52811 14.2977C6.15179 14.9049 6.83926 15.2085 7.59052 15.2085C8.37012 15.2085 9.05759 14.8978 9.65293 14.2765C10.2483 13.641 10.7018 12.7585 11.0137 11.6288C11.3397 10.4991 11.5027 9.20699 11.5027 7.75251C11.5027 6.28391 11.3184 4.99182 10.9499 3.87625C10.5955 2.76068 10.1065 1.89929 9.48283 1.29209C8.87332 0.684875 8.19294 0.38127 7.44168 0.38127Z" fill="black"></path> <path d="M24.0699 8.43032C25.8559 8.6139 27.1174 9.00223 27.8545 9.59532C28.5916 10.1884 28.9601 10.9298 28.9601 11.8194C28.9601 12.9067 28.4711 13.7611 27.493 14.3824C26.515 14.9896 25.1188 15.2932 23.3044 15.2932C22.9075 15.2932 22.5673 15.2861 22.2839 15.272C21.32 15.2438 20.3845 15.2297 19.4773 15.2297C18.2157 15.2297 17.2519 15.2508 16.5857 15.2932V14.8696C17.0676 14.8413 17.4149 14.7848 17.6275 14.7001C17.8401 14.6154 17.9819 14.453 18.0527 14.2129C18.1378 13.9729 18.1803 13.5845 18.1803 13.0479V4.65998C18.1803 4.12337 18.1378 3.73504 18.0527 3.49498C17.9819 3.25492 17.8401 3.09253 17.6275 3.0078C17.4149 2.92308 17.0676 2.86659 16.5857 2.83835V2.41472C17.2519 2.45708 18.2016 2.47826 19.4348 2.47826L21.8586 2.45708C22.1421 2.44296 22.461 2.4359 22.8154 2.4359C24.5164 2.4359 25.7779 2.69008 26.6 3.19844C27.4363 3.69268 27.8545 4.4058 27.8545 5.33779C27.8545 6.05797 27.5568 6.6793 26.9615 7.20178C26.3661 7.71014 25.4023 8.10554 24.0699 8.38796V8.43032ZM22.539 2.83835C22.2272 2.83835 21.9933 2.88777 21.8374 2.98662C21.6814 3.08547 21.5751 3.26198 21.5184 3.51616C21.4617 3.77034 21.4334 4.15162 21.4334 4.65998V8.38796H22.135C23.0422 8.38796 23.6659 8.14084 24.0061 7.6466C24.3604 7.15236 24.5376 6.46042 24.5376 5.57079C24.5376 4.65292 24.3817 3.96804 24.0699 3.51616C23.758 3.06429 23.2477 2.83835 22.539 2.83835ZM22.5603 14.806C23.595 14.806 24.3534 14.5518 24.8353 14.0435C25.3172 13.521 25.5582 12.7514 25.5582 11.7347C25.5582 10.7462 25.3101 10.0048 24.814 9.51059C24.3321 9.00223 23.5596 8.74805 22.4965 8.74805H21.4334V13.0479C21.4334 13.5563 21.4617 13.9305 21.5184 14.1706C21.5751 14.4106 21.6814 14.5801 21.8374 14.6789C21.9933 14.7637 22.2342 14.806 22.5603 14.806Z" fill="black"></path> <path d="M42.0487 14.8696C41.9494 15.9004 41.8998 16.8183 41.8998 17.6232C41.8998 18.2022 41.9211 18.6611 41.9636 19H41.4746C41.262 17.6444 40.8651 16.6841 40.2839 16.1193C39.7028 15.5686 38.8948 15.2932 37.8601 15.2932H32.906C31.8713 15.2932 31.0633 15.5686 30.4822 16.1193C29.901 16.6841 29.5041 17.6444 29.2915 19H28.8025C28.845 18.6611 28.8663 18.2022 28.8663 17.6232C28.8663 16.8183 28.8166 15.9004 28.7174 14.8696H29.3128C30.3192 14.8696 31.0917 14.3824 31.6303 13.408C32.1689 12.4195 32.5304 11.2616 32.7147 9.93423C32.9131 8.60684 33.0974 6.84876 33.2675 4.65998C33.2817 4.54701 33.2887 4.39168 33.2887 4.19398C33.2887 3.82683 33.2391 3.55147 33.1399 3.36789C33.0407 3.18432 32.8706 3.05723 32.6296 2.98662C32.3887 2.91602 32.0272 2.86659 31.5453 2.83835V2.41472C31.928 2.44296 32.6154 2.45708 33.6077 2.45708C33.8912 2.45708 34.0967 2.45002 34.2243 2.4359L35.0535 2.41472C35.663 2.41472 36.3079 2.42884 36.9883 2.45708L38.2215 2.47826C39.6106 2.47826 40.6666 2.45708 41.3895 2.41472V2.83835C40.9218 2.86659 40.5745 2.92308 40.3477 3.0078C40.1351 3.09253 39.9863 3.25492 39.9012 3.49498C39.8303 3.73504 39.7949 4.12337 39.7949 4.65998V13.0479C39.7949 13.5845 39.8303 13.9799 39.9012 14.2341C39.9863 14.4742 40.1351 14.6436 40.3477 14.7425C40.5745 14.8272 40.9218 14.8696 41.3895 14.8696H42.0487ZM36.5418 4.65998C36.5418 4.12337 36.5064 3.72798 36.4355 3.4738C36.3788 3.21962 36.2654 3.05017 36.0953 2.96544C35.9252 2.88071 35.6559 2.83835 35.2874 2.83835H35.011C34.6424 2.83835 34.3802 2.88777 34.2243 2.98662C34.0683 3.07135 33.962 3.22668 33.9053 3.45262C33.8486 3.67856 33.799 4.08101 33.7565 4.65998L33.6289 6.10033C33.5155 7.62542 33.3809 8.91044 33.225 9.95541C33.0832 10.9862 32.821 11.9606 32.4383 12.8785C32.0697 13.7964 31.5453 14.4601 30.8649 14.8696H34.8834C35.3653 14.8696 35.7197 14.8272 35.9465 14.7425C36.1733 14.6436 36.3292 14.4742 36.4142 14.2341C36.4993 13.9799 36.5418 13.5845 36.5418 13.0479V4.65998Z" fill="black"></path> <path d="M58.6858 2.83835C58.2039 2.86659 57.8566 2.92308 57.644 3.0078C57.4314 3.09253 57.2825 3.25492 57.1975 3.49498C57.1266 3.73504 57.0912 4.12337 57.0912 4.65998V13.0479C57.0912 13.5845 57.1266 13.9729 57.1975 14.2129C57.2825 14.453 57.4314 14.6154 57.644 14.7001C57.8708 14.7848 58.218 14.8413 58.6858 14.8696V15.2932C58.0338 15.2508 56.999 15.2297 55.5816 15.2297C54.1499 15.2297 53.0372 15.2508 52.2434 15.2932V14.8696C52.7254 14.8413 53.0727 14.7848 53.2853 14.7001C53.4979 14.6154 53.6396 14.453 53.7105 14.2129C53.7956 13.9729 53.8381 13.5845 53.8381 13.0479V5.2107L47.9485 13.5139C47.9769 13.8952 48.0336 14.1776 48.1186 14.3612C48.2178 14.5448 48.3738 14.6719 48.5864 14.7425C48.799 14.799 49.1179 14.8413 49.5432 14.8696V15.2932C48.7636 15.2508 47.6509 15.2297 46.205 15.2297C44.8159 15.2297 43.7812 15.2508 43.1008 15.2932V14.8696C43.5827 14.8413 43.93 14.7848 44.1426 14.7001C44.3553 14.6154 44.497 14.453 44.5679 14.2129C44.6529 13.9729 44.6954 13.5845 44.6954 13.0479V4.65998C44.6954 4.12337 44.6529 3.73504 44.5679 3.49498C44.497 3.25492 44.3482 3.09253 44.1214 3.0078C43.9088 2.92308 43.5686 2.86659 43.1008 2.83835V2.41472C43.7812 2.45708 44.8159 2.47826 46.205 2.47826C47.6509 2.47826 48.7636 2.45708 49.5432 2.41472V2.83835C49.0612 2.86659 48.714 2.92308 48.5013 3.0078C48.2887 3.09253 48.1399 3.25492 48.0548 3.49498C47.984 3.73504 47.9485 4.12337 47.9485 4.65998V12.7302L53.8381 4.4058C53.8239 3.95392 53.7743 3.62913 53.6893 3.43144C53.6042 3.21962 53.4554 3.07841 53.2428 3.0078C53.0301 2.92308 52.697 2.86659 52.2434 2.83835V2.41472C53.023 2.45708 54.1358 2.47826 55.5816 2.47826C56.2619 2.47826 57.0132 2.46414 57.8353 2.4359C58.0763 2.42178 58.3598 2.41472 58.6858 2.41472V2.83835Z" fill="black"></path> <path d="M71.2257 12.5396C71.2257 13.3445 71.2753 14.2624 71.3745 15.2932C70.4532 15.2508 68.9011 15.2297 66.7182 15.2297C63.7982 15.2297 61.6011 15.2508 60.127 15.2932V14.8696C60.6089 14.8413 60.9562 14.7848 61.1688 14.7001C61.3814 14.6154 61.5232 14.453 61.5941 14.2129C61.6791 13.9729 61.7216 13.5845 61.7216 13.0479V4.65998C61.7216 4.12337 61.6791 3.73504 61.5941 3.49498C61.5232 3.25492 61.3743 3.09253 61.1476 3.0078C60.9349 2.92308 60.5947 2.86659 60.127 2.83835V2.41472C61.6011 2.45708 63.7982 2.47826 66.7182 2.47826C68.7026 2.47826 70.113 2.45708 70.9493 2.41472C70.8501 3.36083 70.8005 4.2081 70.8005 4.95652C70.8005 5.50725 70.8217 5.945 70.8643 6.26979H70.3752C70.1626 5.05537 69.7941 4.19398 69.2696 3.68562C68.7452 3.16314 68.0222 2.9019 67.1009 2.9019H66.3142C65.9457 2.9019 65.6693 2.9372 65.485 3.0078C65.3007 3.06429 65.1661 3.19138 65.081 3.38907C65.0101 3.57265 64.9747 3.86919 64.9747 4.27871V8.59978H65.974C66.626 8.59978 67.1151 8.37384 67.4411 7.92196C67.7813 7.45596 68.0081 6.91936 68.1215 6.31215H68.6105C68.568 6.79227 68.5467 7.34299 68.5467 7.96432V8.81159C68.5467 9.44705 68.5892 10.2802 68.6743 11.311H68.1853C68.086 10.6473 67.8592 10.1037 67.5049 9.68004C67.1647 9.24229 66.6544 9.02341 65.974 9.02341H64.9747V13.4292C64.9747 13.8387 65.0101 14.1423 65.081 14.34C65.1661 14.5236 65.3007 14.6507 65.485 14.7213C65.6693 14.7778 65.9457 14.806 66.3142 14.806H67.2285C68.2349 14.806 69.0216 14.5165 69.5885 13.9376C70.1697 13.3586 70.5737 12.3842 70.8005 11.0145H71.2895C71.247 11.4099 71.2257 11.9182 71.2257 12.5396Z" fill="black"></path> <path d="M88.2432 2.83835C87.7613 2.86659 87.414 2.92308 87.2014 3.0078C86.9888 3.09253 86.84 3.25492 86.7549 3.49498C86.684 3.73504 86.6486 4.12337 86.6486 4.65998V13.0479C86.6486 13.5845 86.684 13.9729 86.7549 14.2129C86.84 14.453 86.9888 14.6154 87.2014 14.7001C87.4282 14.7848 87.7755 14.8413 88.2432 14.8696V15.2932C87.5912 15.2508 86.5565 15.2297 85.139 15.2297C83.7074 15.2297 82.5947 15.2508 81.8009 15.2932V14.8696C82.2828 14.8413 82.6301 14.7848 82.8427 14.7001C83.0553 14.6154 83.1971 14.453 83.268 14.2129C83.353 13.9729 83.3955 13.5845 83.3955 13.0479V8.93868H77.9312V13.0479C77.9312 13.5845 77.9666 13.9729 78.0375 14.2129C78.1226 14.453 78.2714 14.6154 78.484 14.7001C78.7108 14.7848 79.0581 14.8413 79.5258 14.8696V15.2932C78.7462 15.2508 77.6335 15.2297 76.1877 15.2297C74.7986 15.2297 73.7639 15.2508 73.0835 15.2932V14.8696C73.5654 14.8413 73.9127 14.7848 74.1253 14.7001C74.3379 14.6154 74.4797 14.453 74.5506 14.2129C74.6356 13.9729 74.6781 13.5845 74.6781 13.0479V4.65998C74.6781 4.12337 74.6356 3.73504 74.5506 3.49498C74.4797 3.25492 74.3308 3.09253 74.1041 3.0078C73.8914 2.92308 73.5512 2.86659 73.0835 2.83835V2.41472C73.7639 2.45708 74.7986 2.47826 76.1877 2.47826C77.6335 2.47826 78.7462 2.45708 79.5258 2.41472V2.83835C79.0439 2.86659 78.6966 2.92308 78.484 3.0078C78.2714 3.09253 78.1226 3.25492 78.0375 3.49498C77.9666 3.73504 77.9312 4.12337 77.9312 4.65998V8.51505H83.3955V4.65998C83.3955 4.12337 83.353 3.73504 83.268 3.49498C83.1971 3.25492 83.0482 3.09253 82.8214 3.0078C82.6088 2.92308 82.2686 2.86659 81.8009 2.83835V2.41472C82.5947 2.45708 83.7074 2.47826 85.139 2.47826C86.5565 2.47826 87.5912 2.45708 88.2432 2.41472V2.83835Z" fill="black"></path> <path d="M103.727 14.3612C103.373 14.7848 102.976 15.0955 102.537 15.2932C102.097 15.4909 101.559 15.5897 100.921 15.5897C100.155 15.5897 99.5387 15.4274 99.0709 15.1026C98.6031 14.7778 98.2771 14.1776 98.0928 13.3021L97.54 10.845C97.4266 10.3649 97.292 9.98365 97.1361 9.70123C96.9943 9.40468 96.7533 9.16462 96.4132 8.98105C96.0871 8.79747 95.6336 8.70569 95.0524 8.70569H94.5421V13.0479C94.5421 13.5845 94.5775 13.9729 94.6484 14.2129C94.7335 14.453 94.8823 14.6154 95.0949 14.7001C95.3075 14.7848 95.6548 14.8413 96.1367 14.8696V15.2932C95.4138 15.2508 94.3649 15.2297 92.99 15.2297C91.5016 15.2297 90.4031 15.2508 89.6944 15.2932V14.8696C90.1763 14.8413 90.5236 14.7848 90.7362 14.7001C90.9488 14.6154 91.0906 14.453 91.1615 14.2129C91.2465 13.9729 91.289 13.5845 91.289 13.0479V4.65998C91.289 4.12337 91.2465 3.73504 91.1615 3.49498C91.0906 3.25492 90.9417 3.09253 90.715 3.0078C90.5023 2.92308 90.1621 2.86659 89.6944 2.83835V2.41472C90.3889 2.45708 91.4875 2.47826 92.99 2.47826C94.3649 2.47826 95.4138 2.45708 96.1367 2.41472V2.83835C95.6548 2.86659 95.3075 2.92308 95.0949 3.0078C94.8823 3.09253 94.7335 3.25492 94.6484 3.49498C94.5775 3.73504 94.5421 4.12337 94.5421 4.65998V8.30323C95.1516 8.23263 95.6832 8.08436 96.1367 7.85842C96.6045 7.63248 97.0864 7.25827 97.5826 6.73579L98.7732 5.46488C99.2693 4.92828 99.5174 4.43404 99.5174 3.98216C99.5174 3.64326 99.3827 3.37495 99.1134 3.17726C98.8441 2.96544 98.4897 2.84541 98.0503 2.81717V2.41472C99.0709 2.45708 100.106 2.47826 101.155 2.47826C102.019 2.47826 102.707 2.45708 103.217 2.41472V2.81717C102.721 2.93014 102.239 3.12783 101.771 3.41026C101.318 3.67856 100.836 4.05983 100.325 4.55407L96.4132 8.38796C97.618 8.47269 98.6315 8.71275 99.4536 9.10814C100.276 9.50353 100.814 10.1743 101.07 11.1204L101.559 13.0691C101.714 13.6763 101.863 14.0858 102.005 14.2977C102.161 14.4954 102.352 14.5942 102.579 14.5942C102.749 14.5801 102.898 14.5377 103.026 14.4671C103.153 14.3824 103.288 14.2624 103.43 14.107L103.727 14.3612Z" fill="black"></path> <path d="M111.835 2.11817C113.266 2.11817 114.521 2.37941 115.598 2.9019C116.675 3.41026 117.512 4.16574 118.107 5.16834C118.702 6.15682 119 7.34299 119 8.72687C119 10.0825 118.695 11.2828 118.086 12.3278C117.476 13.3586 116.626 14.1635 115.534 14.7425C114.443 15.3073 113.203 15.5897 111.813 15.5897C110.382 15.5897 109.127 15.3356 108.05 14.8272C106.973 14.3047 106.137 13.5492 105.541 12.5608C104.946 11.5582 104.648 10.3649 104.648 8.98105C104.648 7.62542 104.953 6.43218 105.562 5.40134C106.172 4.35637 107.022 3.55147 108.114 2.98662C109.205 2.40766 110.446 2.11817 111.835 2.11817ZM111.75 2.49944C111.013 2.49944 110.361 2.77481 109.794 3.32553C109.241 3.86213 108.808 4.61761 108.497 5.59197C108.199 6.55221 108.05 7.65366 108.05 8.89632C108.05 10.1531 108.22 11.2616 108.56 12.2219C108.901 13.1821 109.361 13.9234 109.942 14.4459C110.538 14.9543 111.19 15.2085 111.899 15.2085C112.636 15.2085 113.281 14.9402 113.833 14.4036C114.4 13.8528 114.833 13.0974 115.13 12.1371C115.442 11.1628 115.598 10.0543 115.598 8.81159C115.598 7.55481 115.428 6.4463 115.088 5.48606C114.748 4.52583 114.28 3.79153 113.685 3.28317C113.103 2.76068 112.458 2.49944 111.75 2.49944Z" fill="black"></path> <path d="M13.9812 25.2034C13.5798 25.2279 13.2906 25.2768 13.1135 25.3503C12.9364 25.4237 12.8124 25.5645 12.7415 25.7726C12.6825 25.9807 12.653 26.3173 12.653 26.7825V34.0537C12.653 34.5188 12.6825 34.8555 12.7415 35.0636C12.8124 35.2717 12.9364 35.4124 13.1135 35.4859C13.3024 35.5593 13.5916 35.6083 13.9812 35.6328V36C13.4381 35.9633 12.5763 35.9449 11.3956 35.9449C10.2032 35.9449 9.27635 35.9633 8.61518 36V35.6328C9.0166 35.6083 9.30586 35.5593 9.48296 35.4859C9.66006 35.4124 9.77812 35.2717 9.83715 35.0636C9.90799 34.8555 9.94341 34.5188 9.94341 34.0537V27.2599L5.03782 34.4576C5.06143 34.7881 5.10866 35.033 5.1795 35.1921C5.26214 35.3512 5.39201 35.4614 5.56911 35.5226C5.74621 35.5716 6.01185 35.6083 6.36605 35.6328V36C5.71669 35.9633 4.78988 35.9449 3.58562 35.9449C2.42858 35.9449 1.56671 35.9633 1 36V35.6328C1.40142 35.6083 1.69068 35.5593 1.86778 35.4859C2.04487 35.4124 2.16294 35.2717 2.22197 35.0636C2.29281 34.8555 2.32823 34.5188 2.32823 34.0537V26.7825C2.32823 26.3173 2.29281 25.9807 2.22197 25.7726C2.16294 25.5645 2.03897 25.4237 1.85007 25.3503C1.67297 25.2768 1.38961 25.2279 1 25.2034V24.8362C1.56671 24.8729 2.42858 24.8912 3.58562 24.8912C4.78988 24.8912 5.71669 24.8729 6.36605 24.8362V25.2034C5.96463 25.2279 5.67537 25.2768 5.49827 25.3503C5.32117 25.4237 5.1972 25.5645 5.12637 25.7726C5.06733 25.9807 5.03782 26.3173 5.03782 26.7825V33.7782L9.94341 26.5621C9.93161 26.1704 9.89028 25.8889 9.81944 25.7175C9.7486 25.5339 9.62464 25.4115 9.44754 25.3503C9.27044 25.2768 8.99299 25.2279 8.61518 25.2034V24.8362C9.26454 24.8729 10.1913 24.8912 11.3956 24.8912C11.9623 24.8912 12.5881 24.879 13.2728 24.8545C13.4736 24.8423 13.7097 24.8362 13.9812 24.8362V25.2034Z" fill="black"></path> <path d="M32.2963 23.3672C31.8948 23.3917 31.6056 23.4407 31.4285 23.5141C31.2514 23.5876 31.1274 23.7283 31.0566 23.9364C30.9976 24.1445 30.968 24.4812 30.968 24.9463V34.0537C30.968 34.5188 30.9976 34.8555 31.0566 35.0636C31.1274 35.2717 31.2514 35.4124 31.4285 35.4859C31.6056 35.5593 31.8948 35.6083 32.2963 35.6328V36C31.6941 35.9633 30.7614 35.9449 29.4981 35.9449C28.3411 35.9449 27.4497 35.9633 26.824 36V35.6328C27.2136 35.6083 27.4969 35.5593 27.674 35.4859C27.8629 35.4124 27.9869 35.2717 28.0459 35.0636C28.1168 34.8555 28.1522 34.5188 28.1522 34.0537V24.9463C28.1522 24.4812 28.1168 24.1445 28.0459 23.9364C27.9751 23.7161 27.8393 23.5692 27.6386 23.4958C27.4379 23.4101 27.1309 23.3672 26.7177 23.3672H24.8936C24.4804 23.3672 24.1734 23.4101 23.9727 23.4958C23.772 23.5692 23.6362 23.7161 23.5654 23.9364C23.4945 24.1445 23.4591 24.4812 23.4591 24.9463V34.0537C23.4591 34.5188 23.4886 34.8555 23.5477 35.0636C23.6185 35.2717 23.7425 35.4124 23.9196 35.4859C24.0967 35.5593 24.3859 35.6083 24.7873 35.6328V36C24.1498 35.9633 23.2584 35.9449 22.1132 35.9449C20.8499 35.9449 19.9172 35.9633 19.315 36V35.6328C19.7047 35.6083 19.988 35.5593 20.1651 35.4859C20.354 35.4124 20.478 35.2717 20.537 35.0636C20.6078 34.8555 20.6433 34.5188 20.6433 34.0537V24.9463C20.6433 24.4812 20.6078 24.1445 20.537 23.9364C20.478 23.7283 20.354 23.5876 20.1651 23.5141C19.988 23.4407 19.7047 23.3917 19.315 23.3672V23C19.9172 23.0367 20.8499 23.0551 22.1132 23.0551C22.7035 23.0551 23.4709 23.0428 24.4154 23.0184L25.8322 23L27.2136 23.0184C28.1581 23.0428 28.9196 23.0551 29.4981 23.0551C30.7614 23.0551 31.6941 23.0367 32.2963 23V23.3672Z" fill="black"></path> <path d="M43.0072 34.4576C43.3496 35.2166 43.7215 35.6083 44.1229 35.6328V36C43.5562 35.9633 42.7829 35.9449 41.8029 35.9449C40.5396 35.9449 39.6069 35.9633 39.0048 36V35.6328C39.3944 35.6083 39.6837 35.5471 39.8726 35.4492C40.0615 35.339 40.1559 35.1615 40.1559 34.9167C40.1559 34.6963 40.0792 34.4209 39.9257 34.0904L39.0402 31.9972H35.3212L35.1087 32.4929C34.7781 33.3008 34.6128 33.9313 34.6128 34.3842C34.6128 34.8004 34.7427 35.1064 35.0024 35.3023C35.2621 35.4981 35.6459 35.6083 36.1535 35.6328V36C35.4806 35.9633 34.8017 35.9449 34.1169 35.9449C33.4794 35.9449 33.0012 35.9633 32.6824 36V35.6328C32.9658 35.5716 33.2255 35.3879 33.4617 35.0819C33.7096 34.7637 33.9693 34.2924 34.2409 33.6681L37.9776 24.7994C38.0721 24.8117 38.2079 24.8178 38.385 24.8178C38.5739 24.8178 38.7096 24.8117 38.7923 24.7994L43.0072 34.4576ZM38.8808 31.6299L37.1807 27.6088L35.4806 31.6299H38.8808Z" fill="black"></path> <path d="M48.6203 31.4831V34.0537C48.6203 34.5188 48.6558 34.8555 48.7266 35.0636C48.7974 35.2717 48.9273 35.4124 49.1162 35.4859C49.3169 35.5593 49.6298 35.6083 50.0548 35.6328V36C49.3701 35.9633 48.3724 35.9449 47.0619 35.9449C45.9639 35.9449 45.1374 35.9633 44.5825 36V35.6328C44.9839 35.6083 45.2732 35.5593 45.4503 35.4859C45.6274 35.4124 45.7455 35.2717 45.8045 35.0636C45.8753 34.8555 45.9108 34.5188 45.9108 34.0537V26.7825C45.9108 26.3173 45.8753 25.9807 45.8045 25.7726C45.7455 25.5645 45.6215 25.4237 45.4326 25.3503C45.2555 25.2768 44.9721 25.2279 44.5825 25.2034V24.8362C45.1374 24.8729 45.9285 24.8912 46.9556 24.8912L49.0985 24.8729C49.3464 24.8606 49.6298 24.8545 49.9486 24.8545C51.4834 24.8545 52.6227 25.1238 53.3666 25.6624C54.1222 26.1888 54.5 26.9416 54.5 27.9209C54.5 28.9124 54.1045 29.7571 53.3134 30.4548C52.5342 31.1403 51.2237 31.4831 49.3819 31.4831H48.6203ZM49.7183 25.2034C49.4114 25.2034 49.1812 25.2462 49.0277 25.3319C48.8742 25.4176 48.7679 25.5706 48.7089 25.791C48.6499 26.0113 48.6203 26.3418 48.6203 26.7825V31.1158H49.2048C50.1375 31.1158 50.7809 30.8465 51.1351 30.3079C51.4893 29.7693 51.6664 29.041 51.6664 28.1229C51.6664 27.1314 51.5129 26.3969 51.206 25.9195C50.9108 25.4421 50.4149 25.2034 49.7183 25.2034Z" fill="black"></path> <path d="M65.8911 24.8362C65.8084 25.7665 65.7671 26.5989 65.7671 27.3333C65.7671 28.0188 65.7848 28.5574 65.8202 28.9492H65.4129C65.2476 28.0188 65.0469 27.2905 64.8108 26.7641C64.5864 26.2378 64.2913 25.8583 63.9253 25.6257C63.5711 25.3809 63.1106 25.2585 62.5439 25.2585H61.9949V33.8701C61.9949 34.3842 62.0422 34.7575 62.1366 34.9901C62.2311 35.2227 62.3963 35.3818 62.6325 35.4675C62.8686 35.5532 63.2523 35.6083 63.7836 35.6328V36C63.1461 35.9633 62.0835 35.9449 60.5959 35.9449C59.0964 35.9449 58.0634 35.9633 57.4967 36V35.6328C58.028 35.6083 58.4117 35.5532 58.6478 35.4675C58.8839 35.3818 59.0492 35.2227 59.1437 34.9901C59.2381 34.7575 59.2853 34.3842 59.2853 33.8701V25.2585H58.7363C58.1696 25.2585 57.7033 25.3809 57.3373 25.6257C56.9831 25.8583 56.6879 26.2378 56.4518 26.7641C56.2275 27.2905 56.0326 28.0188 55.8674 28.9492H55.46C55.4955 28.5574 55.5132 28.0188 55.5132 27.3333C55.5132 26.5989 55.4718 25.7665 55.3892 24.8362C56.4164 24.8729 58.1519 24.8912 60.5959 24.8912C63.087 24.8912 64.8521 24.8729 65.8911 24.8362Z" fill="black"></path> <path d="M79.6234 25.2034C79.222 25.2279 78.9328 25.2768 78.7557 25.3503C78.5786 25.4237 78.4546 25.5645 78.3838 25.7726C78.3247 25.9807 78.2952 26.3173 78.2952 26.7825V34.0537C78.2952 34.5188 78.3247 34.8555 78.3838 35.0636C78.4546 35.2717 78.5786 35.4124 78.7557 35.4859C78.9446 35.5593 79.2338 35.6083 79.6234 35.6328V36C79.0803 35.9633 78.2185 35.9449 77.0378 35.9449C75.8454 35.9449 74.9185 35.9633 74.2574 36V35.6328C74.6588 35.6083 74.9481 35.5593 75.1252 35.4859C75.3023 35.4124 75.4203 35.2717 75.4794 35.0636C75.5502 34.8555 75.5856 34.5188 75.5856 34.0537V30.4915H71.0342V34.0537C71.0342 34.5188 71.0637 34.8555 71.1228 35.0636C71.1936 35.2717 71.3176 35.4124 71.4947 35.4859C71.6836 35.5593 71.9728 35.6083 72.3624 35.6328V36C71.7131 35.9633 70.7863 35.9449 69.582 35.9449C68.425 35.9449 67.5631 35.9633 66.9964 36V35.6328C67.3978 35.6083 67.6871 35.5593 67.8642 35.4859C68.0413 35.4124 68.1593 35.2717 68.2184 35.0636C68.2892 34.8555 68.3246 34.5188 68.3246 34.0537V26.7825C68.3246 26.3173 68.2892 25.9807 68.2184 25.7726C68.1593 25.5645 68.0354 25.4237 67.8465 25.3503C67.6694 25.2768 67.386 25.2279 66.9964 25.2034V24.8362C67.5631 24.8729 68.425 24.8912 69.582 24.8912C70.7863 24.8912 71.7131 24.8729 72.3624 24.8362V25.2034C71.961 25.2279 71.6718 25.2768 71.4947 25.3503C71.3176 25.4237 71.1936 25.5645 71.1228 25.7726C71.0637 25.9807 71.0342 26.3173 71.0342 26.7825V30.1243H75.5856V26.7825C75.5856 26.3173 75.5502 25.9807 75.4794 25.7726C75.4203 25.5645 75.2964 25.4237 75.1075 25.3503C74.9304 25.2768 74.647 25.2279 74.2574 25.2034V24.8362C74.9185 24.8729 75.8454 24.8912 77.0378 24.8912C78.2185 24.8912 79.0803 24.8729 79.6234 24.8362V25.2034Z" fill="black"></path> <path d="M90.0766 33.613C90.0766 34.3107 90.1179 35.1064 90.2006 36C89.4332 35.9633 88.1403 35.9449 86.3221 35.9449C83.89 35.9449 82.06 35.9633 80.8321 36V35.6328C81.2335 35.6083 81.5228 35.5593 81.6999 35.4859C81.877 35.4124 81.9951 35.2717 82.0541 35.0636C82.1249 34.8555 82.1604 34.5188 82.1604 34.0537V26.7825C82.1604 26.3173 82.1249 25.9807 82.0541 25.7726C81.9951 25.5645 81.8711 25.4237 81.6822 25.3503C81.5051 25.2768 81.2217 25.2279 80.8321 25.2034V24.8362C82.06 24.8729 83.89 24.8912 86.3221 24.8912C87.975 24.8912 89.1498 24.8729 89.8464 24.8362C89.7637 25.6563 89.7224 26.3908 89.7224 27.0395C89.7224 27.5169 89.7401 27.8964 89.7755 28.178H89.3682C89.1911 27.1252 88.8841 26.3785 88.4473 25.9379C88.0105 25.4849 87.4083 25.2585 86.6409 25.2585H85.9857C85.6787 25.2585 85.4485 25.2891 85.295 25.3503C85.1415 25.3992 85.0293 25.5094 84.9585 25.6808C84.8995 25.8399 84.8699 26.097 84.8699 26.452V30.1977H85.7023C86.2454 30.1977 86.6527 30.0019 86.9243 29.6102C87.2076 29.2062 87.3965 28.7411 87.491 28.2147H87.8983C87.8629 28.6309 87.8452 29.1083 87.8452 29.6469V30.3814C87.8452 30.9322 87.8806 31.6544 87.9514 32.548H87.5441C87.4615 31.9727 87.2726 31.5014 86.9774 31.1342C86.694 30.7547 86.269 30.565 85.7023 30.565H84.8699V34.3842C84.8699 34.7392 84.8995 35.0024 84.9585 35.1737C85.0293 35.3329 85.1415 35.443 85.295 35.5042C85.4485 35.5532 85.6787 35.5777 85.9857 35.5777H86.7472C87.5854 35.5777 88.2407 35.3267 88.713 34.8249C89.197 34.323 89.5335 33.4783 89.7224 32.291H90.1297C90.0943 32.6337 90.0766 33.0744 90.0766 33.613Z" fill="black"></path> <path d="M95.6618 31.4831V34.0537C95.6618 34.5188 95.6972 34.8555 95.7681 35.0636C95.8389 35.2717 95.9688 35.4124 96.1577 35.4859C96.3584 35.5593 96.6713 35.6083 97.0963 35.6328V36C96.4115 35.9633 95.4139 35.9449 94.1034 35.9449C93.0053 35.9449 92.1789 35.9633 91.624 36V35.6328C92.0254 35.6083 92.3147 35.5593 92.4918 35.4859C92.6689 35.4124 92.7869 35.2717 92.846 35.0636C92.9168 34.8555 92.9522 34.5188 92.9522 34.0537V26.7825C92.9522 26.3173 92.9168 25.9807 92.846 25.7726C92.7869 25.5645 92.663 25.4237 92.4741 25.3503C92.297 25.2768 92.0136 25.2279 91.624 25.2034V24.8362C92.1789 24.8729 92.9699 24.8912 93.9971 24.8912L96.14 24.8729C96.3879 24.8606 96.6713 24.8545 96.99 24.8545C98.5249 24.8545 99.6642 25.1238 100.408 25.6624C101.164 26.1888 101.541 26.9416 101.541 27.9209C101.541 28.9124 101.146 29.7571 100.355 30.4548C99.5757 31.1403 98.2651 31.4831 96.4233 31.4831H95.6618ZM96.7598 25.2034C96.4528 25.2034 96.2226 25.2462 96.0691 25.3319C95.9156 25.4176 95.8094 25.5706 95.7504 25.791C95.6913 26.0113 95.6618 26.3418 95.6618 26.7825V31.1158H96.2462C97.1789 31.1158 97.8224 30.8465 98.1766 30.3079C98.5308 29.7693 98.7079 29.041 98.7079 28.1229C98.7079 27.1314 98.5544 26.3969 98.2474 25.9195C97.9523 25.4421 97.4564 25.2034 96.7598 25.2034Z" fill="black"></path> <path d="M107.303 29.5734C109.157 29.5857 110.462 29.8672 111.217 30.4181C111.973 30.9689 112.351 31.7156 112.351 32.6582C112.351 34.8738 110.81 35.9816 107.728 35.9816C107.41 35.9816 107.132 35.9755 106.896 35.9633L104.806 35.9449C103.779 35.9449 102.988 35.9633 102.433 36V35.6328C102.823 35.6083 103.106 35.5593 103.283 35.4859C103.472 35.4124 103.596 35.2717 103.655 35.0636C103.726 34.8555 103.761 34.5188 103.761 34.0537V26.7825C103.761 26.3173 103.726 25.9807 103.655 25.7726C103.596 25.5645 103.478 25.4237 103.301 25.3503C103.124 25.2768 102.835 25.2279 102.433 25.2034V24.8362C102.988 24.8729 103.815 24.8912 104.913 24.8912C106.211 24.8912 107.209 24.8729 107.905 24.8362V25.2034C107.48 25.2279 107.168 25.2768 106.967 25.3503C106.778 25.4237 106.648 25.5645 106.577 25.7726C106.506 25.9807 106.471 26.3173 106.471 26.7825V29.5734H107.303ZM118 25.2034C117.61 25.2279 117.321 25.2768 117.132 25.3503C116.955 25.4237 116.831 25.5645 116.76 25.7726C116.701 25.9807 116.672 26.3173 116.672 26.7825V34.0537C116.672 34.5188 116.701 34.8555 116.76 35.0636C116.831 35.2717 116.955 35.4124 117.132 35.4859C117.321 35.5593 117.61 35.6083 118 35.6328V36C117.398 35.9633 116.524 35.9449 115.379 35.9449C114.139 35.9449 113.224 35.9633 112.634 36V35.6328C113.035 35.6083 113.325 35.5593 113.502 35.4859C113.679 35.4124 113.797 35.2717 113.856 35.0636C113.927 34.8555 113.962 34.5188 113.962 34.0537V26.7825C113.962 26.3173 113.927 25.9807 113.856 25.7726C113.797 25.5645 113.679 25.4237 113.502 25.3503C113.325 25.2768 113.035 25.2279 112.634 25.2034V24.8362C113.224 24.8729 114.139 24.8912 115.379 24.8912C116.524 24.8912 117.398 24.8729 118 24.8362V25.2034ZM107.498 35.6328C108.218 35.6328 108.732 35.4002 109.039 34.935C109.358 34.4699 109.517 33.7599 109.517 32.8051C109.517 31.9115 109.346 31.2137 109.003 30.7119C108.661 30.1977 108.035 29.9407 107.126 29.9407H106.471V34.0537C106.471 34.4943 106.495 34.8249 106.542 35.0452C106.601 35.2655 106.701 35.4185 106.843 35.5042C106.985 35.5899 107.203 35.6328 107.498 35.6328Z" fill="black"></path> <path d="M145.402 16.5295C144.776 16.5295 144.222 16.3865 143.742 16.1007C143.261 15.8079 142.875 15.4035 142.582 14.8876C142.297 14.3717 142.137 13.7687 142.102 13.0785H140.661V16.4772H139.93V9.05229H140.661V12.4196H142.102C142.144 11.7225 142.314 11.1194 142.614 10.6105C142.913 10.0946 143.303 9.69717 143.783 9.4183C144.271 9.13943 144.81 9 145.402 9C146.078 9 146.67 9.16384 147.178 9.49151C147.686 9.8122 148.083 10.2549 148.369 10.8196C148.654 11.3843 148.797 12.0362 148.797 12.7752C148.797 13.556 148.647 14.2288 148.348 14.7935C148.048 15.3512 147.641 15.78 147.126 16.0798C146.617 16.3796 146.043 16.5295 145.402 16.5295ZM145.402 15.8706C145.945 15.8706 146.415 15.7382 146.812 15.4732C147.209 15.2083 147.516 14.8423 147.731 14.3752C147.947 13.9081 148.055 13.3713 148.055 12.7647C148.055 12.1303 147.94 11.583 147.711 11.1229C147.481 10.6558 147.167 10.2967 146.771 10.0458C146.374 9.79478 145.918 9.66928 145.402 9.66928C144.873 9.66928 144.414 9.80175 144.024 10.0667C143.641 10.3246 143.341 10.6872 143.125 11.1543C142.917 11.6214 142.812 12.1582 142.812 12.7647C142.812 13.3992 142.92 13.9499 143.136 14.417C143.359 14.8772 143.665 15.2362 144.055 15.4942C144.445 15.7451 144.894 15.8706 145.402 15.8706Z" fill="#868686"></path> <path d="M150.17 16.4772V9.05229H153.24C153.561 9.05229 153.853 9.11852 154.118 9.25098C154.389 9.38344 154.623 9.56471 154.818 9.79478C155.019 10.0179 155.173 10.2689 155.277 10.5477C155.388 10.8196 155.444 11.0985 155.444 11.3843C155.444 11.7887 155.354 12.1721 155.173 12.5347C154.992 12.8902 154.741 13.1795 154.421 13.4026C154.1 13.6257 153.728 13.7373 153.303 13.7373H150.901V16.4772H150.17ZM150.901 13.0889H153.272C153.564 13.0889 153.818 13.0087 154.034 12.8484C154.25 12.688 154.417 12.4789 154.536 12.2209C154.654 11.963 154.713 11.6841 154.713 11.3843C154.713 11.0776 154.643 10.7987 154.504 10.5477C154.365 10.2898 154.18 10.0841 153.951 9.93072C153.728 9.77735 153.481 9.70066 153.209 9.70066H150.901V13.0889Z" fill="#868686"></path> <path d="M156.709 16.4772V9.05229H157.429V15.4732L162.025 9.05229H162.704V16.4772H161.983V10.1712L157.44 16.4772H156.709Z" fill="#868686"></path> <path d="M164.069 17.8994V15.8288H164.383C164.578 15.8218 164.748 15.7417 164.895 15.5883C165.048 15.4279 165.177 15.17 165.281 14.8144C165.392 14.4519 165.479 13.9673 165.542 13.3608C165.612 12.7543 165.66 12.0013 165.688 11.102L165.74 9.05229H170.179V15.8288H171.067V17.8994H170.42V16.4772H164.717V17.8994H164.069ZM165.427 15.8288H169.448V9.70066H166.409L166.367 11.1856C166.346 12.1268 166.298 12.9146 166.221 13.549C166.151 14.1765 166.05 14.675 165.918 15.0445C165.786 15.407 165.622 15.6684 165.427 15.8288Z" fill="#868686"></path> <path d="M172.467 16.4772V9.05229H173.188V15.4732L177.783 9.05229H178.462V16.4772H177.741V10.1712L173.198 16.4772H172.467Z" fill="#868686"></path> <path d="M184.507 16.4772V13.2771C184.27 13.3817 183.984 13.4758 183.65 13.5595C183.323 13.6432 182.957 13.685 182.554 13.685C181.732 13.685 181.126 13.5072 180.736 13.1517C180.346 12.7891 180.151 12.2174 180.151 11.4366V9.05229H180.862V11.353C180.862 11.9316 181.001 12.3534 181.279 12.6183C181.565 12.8832 182.024 13.0157 182.658 13.0157C183.013 13.0157 183.358 12.9774 183.692 12.9007C184.026 12.824 184.298 12.7299 184.507 12.6183V9.05229H185.217V16.4772H184.507Z" fill="#868686"></path> <path d="M192.064 15.8288V16.4772H187.082V9.05229H191.97V9.70066H187.813V12.3778H191.437V12.9948H187.813V15.8288H192.064Z" fill="#868686"></path> <path d="M192.813 12.7124C192.813 12.2662 192.889 11.8235 193.042 11.3843C193.202 10.9451 193.432 10.5477 193.732 10.1922C194.031 9.82963 194.4 9.54379 194.839 9.33464C195.277 9.11852 195.775 9.01046 196.332 9.01046C196.987 9.01046 197.551 9.16384 198.024 9.47059C198.498 9.77037 198.846 10.1573 199.069 10.6314L198.494 10.9869C198.334 10.6593 198.132 10.4013 197.888 10.2131C197.645 10.0179 197.384 9.87844 197.105 9.79478C196.834 9.71111 196.562 9.66928 196.29 9.66928C195.845 9.66928 195.451 9.75992 195.11 9.94118C194.769 10.1155 194.48 10.3525 194.243 10.6523C194.014 10.9521 193.84 11.2832 193.721 11.6458C193.603 12.0083 193.544 12.3778 193.544 12.7543C193.544 13.1656 193.613 13.5595 193.753 13.936C193.892 14.3055 194.087 14.6366 194.337 14.9294C194.588 15.2223 194.88 15.4558 195.215 15.6301C195.556 15.7974 195.925 15.8811 196.322 15.8811C196.6 15.8811 196.886 15.8323 197.178 15.7347C197.471 15.6371 197.742 15.4872 197.993 15.285C198.244 15.0828 198.449 14.8214 198.609 14.5007L199.215 14.8144C199.055 15.1839 198.814 15.4976 198.494 15.7556C198.181 16.0135 197.826 16.2088 197.429 16.3412C197.039 16.4737 196.656 16.5399 196.28 16.5399C195.772 16.5399 195.305 16.4318 194.88 16.2157C194.456 15.9926 194.087 15.6998 193.773 15.3373C193.467 14.9678 193.23 14.5565 193.063 14.1033C192.896 13.6432 192.813 13.1795 192.813 12.7124Z" fill="#868686"></path> <path d="M200.463 16.4772V9.05229H201.195V12.3569H202.312L204.86 9.05229H205.706L202.918 12.6497L205.884 16.4772H204.986L202.333 13.0262H201.195V16.4772H200.463Z" fill="#868686"></path> <path d="M207.125 16.4772V9.05229H207.845V15.4732L212.441 9.05229H213.12V16.4772H212.399V10.1712L207.856 16.4772H207.125Z" fill="#868686"></path> <path d="M220 15.8288V16.4772H215.018V9.05229H219.906V9.70066H215.749V12.3778H219.373V12.9948H215.749V15.8288H220Z" fill="#868686"></path> <path d="M140.744 28.9582V28.3412H141.214C141.374 28.3412 141.493 28.2959 141.569 28.2052C141.653 28.1146 141.743 27.9786 141.841 27.7974L142.165 27.1176L139 21.5124H139.804L142.499 26.3751L144.744 21.5124H145.507L142.405 28.1529C142.266 28.4388 142.123 28.6444 141.977 28.7699C141.83 28.8954 141.625 28.9582 141.36 28.9582H140.744Z" fill="#868686"></path> <path d="M145.875 25.1725C145.875 24.7263 145.951 24.2836 146.104 23.8444C146.264 23.4052 146.494 23.0078 146.794 22.6523C147.093 22.2897 147.462 22.0039 147.901 21.7947C148.339 21.5786 148.837 21.4705 149.394 21.4705C150.049 21.4705 150.613 21.6239 151.086 21.9307C151.56 22.2305 151.908 22.6174 152.131 23.0915L151.556 23.447C151.396 23.1194 151.194 22.8614 150.95 22.6732C150.707 22.478 150.446 22.3385 150.167 22.2549C149.896 22.1712 149.624 22.1294 149.352 22.1294C148.907 22.1294 148.513 22.22 148.172 22.4013C147.831 22.5756 147.542 22.8126 147.305 23.1124C147.076 23.4122 146.902 23.7433 146.783 24.1059C146.665 24.4684 146.606 24.8379 146.606 25.2144C146.606 25.6257 146.675 26.0196 146.815 26.3961C146.954 26.7656 147.149 27.0967 147.399 27.3895C147.65 27.6823 147.942 27.9159 148.277 28.0902C148.618 28.2575 148.987 28.3412 149.384 28.3412C149.662 28.3412 149.948 28.2924 150.24 28.1948C150.533 28.0972 150.804 27.9473 151.055 27.7451C151.306 27.5429 151.511 27.2815 151.671 26.9608L152.277 27.2745C152.117 27.644 151.877 27.9577 151.556 28.2157C151.243 28.4736 150.888 28.6688 150.491 28.8013C150.101 28.9338 149.718 29 149.342 29C148.834 29 148.367 28.8919 147.942 28.6758C147.518 28.4527 147.149 28.1599 146.835 27.7974C146.529 27.4279 146.292 27.0165 146.125 26.5634C145.958 26.1033 145.875 25.6396 145.875 25.1725Z" fill="#868686"></path> <path d="M158.539 28.9373V22.1607H155.51L155.468 23.7294C155.433 24.7542 155.36 25.6048 155.249 26.281C155.137 26.9573 154.981 27.4906 154.779 27.881C154.577 28.2645 154.326 28.5399 154.027 28.7072C153.734 28.8675 153.39 28.9477 152.993 28.9477V28.2993C153.264 28.2993 153.505 28.2296 153.713 28.0902C153.922 27.9508 154.1 27.7067 154.246 27.3582C154.392 27.0096 154.507 26.5285 154.591 25.915C154.681 25.2945 154.74 24.5102 154.768 23.5621L154.831 21.5124H159.259V28.9373H158.539Z" fill="#868686"></path> <path d="M161.929 28.9582V28.3412H162.398C162.559 28.3412 162.677 28.2959 162.754 28.2052C162.837 28.1146 162.928 27.9786 163.025 27.7974L163.349 27.1176L160.184 21.5124H160.989L163.683 26.3751L165.929 21.5124H166.691L163.589 28.1529C163.45 28.4388 163.307 28.6444 163.161 28.7699C163.015 28.8954 162.809 28.9582 162.545 28.9582H161.929Z" fill="#868686"></path> <path d="M167.55 28.9373V21.5124H171.759V22.1607H168.281V28.9373H167.55Z" fill="#868686"></path> <path d="M172.977 28.9373V21.5124H173.697V27.9333L178.293 21.5124H178.972V28.9373H178.251V22.6313L173.708 28.9373H172.977Z" fill="#868686"></path> <path fill-rule="evenodd" clip-rule="evenodd" d="M129 36L129 2L130 2L130 36L129 36Z" fill="black"></path> </svg> 